<svg width="115" height="14" viewBox="0 0 115 14" fill="none" xmlns="http://www.w3.org/2000/svg">
<g clip-path="url(#clip0_3495_714)">
<path d="M10.7359 2.74288C9.75209 1.76392 8.45928 1.15633 7.07772 1.0236C5.69616 0.890872 4.31131 1.24121 3.15906 2.01494C2.00682 2.78868 1.15844 3.93794 0.758462 5.26698C0.358483 6.59602 0.431626 8.02262 0.965442 9.30378C1.49926 10.5849 2.46075 11.6414 3.68609 12.2932C4.91143 12.9451 6.32483 13.1519 7.68557 12.8786C9.04631 12.6052 10.2702 11.8686 11.1488 10.7941C12.0273 9.7197 12.5062 8.37388 12.5039 6.98596C12.5026 6.19722 12.3457 5.41648 12.0424 4.68841C11.739 3.96033 11.2951 3.29921 10.7359 2.74288ZM9.63097 9.37271L9.32158 9.6821C9.12766 9.87812 8.88643 10.0208 8.62123 10.0963C8.35604 10.1718 8.07586 10.1775 7.80778 10.113C7.25799 9.96585 6.73557 9.73078 6.26079 9.41691C5.81753 9.13922 5.40944 8.80902 5.04535 8.43348C4.70129 8.09875 4.39383 7.72834 4.12821 7.32851C3.83876 6.89706 3.60836 6.42882 3.44313 5.93625C3.35122 5.65359 3.33977 5.35093 3.41002 5.06213C3.48027 4.77332 3.62947 4.50975 3.84094 4.30088L4.20556 3.94729C4.22829 3.92321 4.25569 3.90403 4.28609 3.89092C4.31649 3.87781 4.34925 3.87105 4.38236 3.87105C4.41547 3.87105 4.44823 3.87781 4.47864 3.89092C4.50904 3.90403 4.53644 3.92321 4.55916 3.94729L5.66413 5.05226C5.68821 5.07499 5.70737 5.1024 5.72048 5.1328C5.73359 5.1632 5.74038 5.19596 5.74038 5.22906C5.74038 5.26217 5.73359 5.29493 5.72048 5.32533C5.70737 5.35573 5.68821 5.38313 5.66413 5.40586L5.00114 6.05779C4.9104 6.15044 4.85515 6.27205 4.84505 6.40134C4.83495 6.53063 4.87066 6.65936 4.94591 6.76497C5.18704 7.0942 5.45298 7.4045 5.74145 7.69315C6.06201 8.01337 6.40952 8.30542 6.78013 8.56607C6.88601 8.63701 7.01317 8.66916 7.14003 8.65708C7.2669 8.645 7.38568 8.58942 7.47627 8.49978L8.11717 7.85889C8.13989 7.83481 8.16729 7.81563 8.1977 7.80252C8.2281 7.78941 8.26086 7.78265 8.29397 7.78265C8.32708 7.78265 8.35981 7.78941 8.39021 7.80252C8.42061 7.81563 8.44801 7.83481 8.47073 7.85889L9.57571 8.96386C9.60614 8.98568 9.63113 9.01425 9.64871 9.04731C9.6663 9.08038 9.676 9.11706 9.67707 9.1545C9.67814 9.19193 9.67055 9.22911 9.65488 9.26313C9.63922 9.29715 9.61591 9.32708 9.58677 9.3506L9.63097 9.37271Z" fill="#DB903E"/>
</g>
<path d="M19.2415 13.9961C18.6855 13.1535 18.2545 12.1813 17.9487 11.0794C17.6522 9.96832 17.5039 8.77387 17.5039 7.49609C17.5039 6.21832 17.6522 5.02387 17.9487 3.91276C18.2545 2.79239 18.6855 1.82017 19.2415 0.996094H21.3127C20.7288 2.04239 20.3026 3.09795 20.0338 4.16276C19.7651 5.21832 19.6307 6.32943 19.6307 7.49609C19.6307 8.66276 19.7651 9.7785 20.0338 10.8433C20.3026 11.8989 20.7288 12.9498 21.3127 13.9961H19.2415Z" fill="#58595B"/>
<path d="M21.617 10.0977V8.58378L26.2042 2.41712H28.5673L24.0774 8.58378L22.9792 8.26434H30.6385V10.0977H21.617ZM26.8575 12.1393V10.0977L26.927 8.26434V6.44489H29.0538V12.1393H26.8575Z" fill="#58595B"/>
<path d="M35.4822 12.306C34.6852 12.306 33.9716 12.1116 33.3415 11.7227C32.7113 11.3245 32.2155 10.7504 31.8541 10.0004C31.4927 9.25045 31.312 8.34304 31.312 7.27823C31.312 6.21341 31.4927 5.30601 31.8541 4.55601C32.2155 3.80601 32.7113 3.23656 33.3415 2.84767C33.9716 2.44952 34.6852 2.25045 35.4822 2.25045C36.2884 2.25045 37.002 2.44952 37.6229 2.84767C38.253 3.23656 38.7488 3.80601 39.1102 4.55601C39.4716 5.30601 39.6523 6.21341 39.6523 7.27823C39.6523 8.34304 39.4716 9.25045 39.1102 10.0004C38.7488 10.7504 38.253 11.3245 37.6229 11.7227C37.002 12.1116 36.2884 12.306 35.4822 12.306ZM35.4822 10.4032C35.8621 10.4032 36.1911 10.2967 36.4691 10.0838C36.7564 9.87082 36.9788 9.53286 37.1363 9.06989C37.3031 8.60693 37.3865 8.00971 37.3865 7.27823C37.3865 6.54675 37.3031 5.94952 37.1363 5.48656C36.9788 5.0236 36.7564 4.68563 36.4691 4.47267C36.1911 4.25971 35.8621 4.15323 35.4822 4.15323C35.1115 4.15323 34.7825 4.25971 34.4952 4.47267C34.2172 4.68563 33.9948 5.0236 33.828 5.48656C33.6704 5.94952 33.5917 6.54675 33.5917 7.27823C33.5917 8.00971 33.6704 8.60693 33.828 9.06989C33.9948 9.53286 34.2172 9.87082 34.4952 10.0838C34.7825 10.2967 35.1115 10.4032 35.4822 10.4032Z" fill="#58595B"/>
<path d="M43.7662 12.306C43.0897 12.306 42.4178 12.218 41.7506 12.0421C41.0833 11.8569 40.518 11.5977 40.0547 11.2643L40.9304 9.54212C41.3011 9.81063 41.732 10.0236 42.2232 10.181C42.7143 10.3384 43.2101 10.4171 43.7106 10.4171C44.2758 10.4171 44.7207 10.306 45.045 10.0838C45.3694 9.86156 45.5315 9.55601 45.5315 9.16712C45.5315 8.79675 45.3879 8.50508 45.1006 8.29212C44.8133 8.07915 44.35 7.97267 43.7106 7.97267H42.6819V6.48656L45.3925 3.41712L45.6427 4.22267H40.5412V2.41712H47.3525V3.87545L44.6558 6.94489L43.5159 6.29212H44.1693C45.3647 6.29212 46.2683 6.56064 46.8799 7.09767C47.4915 7.63471 47.7973 8.32452 47.7973 9.16712C47.7973 9.71341 47.6537 10.2273 47.3664 10.7088C47.0791 11.181 46.6389 11.5653 46.0459 11.8616C45.4528 12.1579 44.6929 12.306 43.7662 12.306Z" fill="#58595B"/>
<path d="M50.5051 13.9961H48.4339C49.0363 12.9498 49.4672 11.8989 49.7267 10.8433C49.9954 9.7785 50.1298 8.66276 50.1298 7.49609C50.1298 6.32943 49.9954 5.21832 49.7267 4.16276C49.4672 3.09795 49.0363 2.04239 48.4339 0.996094H50.5051C51.0797 1.82017 51.5152 2.79239 51.8118 3.91276C52.1083 5.02387 52.2566 6.21832 52.2566 7.49609C52.2566 8.77387 52.1083 9.96832 51.8118 11.0794C51.5152 12.1813 51.0797 13.1535 50.5051 13.9961Z" fill="#58595B"/>
<path d="M61.064 12.306C60.3875 12.306 59.7157 12.218 59.0484 12.0421C58.3905 11.8569 57.8252 11.5977 57.3526 11.2643L58.2422 9.54212C58.6129 9.81063 59.0392 10.0236 59.5211 10.181C60.0122 10.3384 60.508 10.4171 61.0084 10.4171C61.5737 10.4171 62.0185 10.306 62.3429 10.0838C62.6672 9.86156 62.8294 9.55138 62.8294 9.15323C62.8294 8.90323 62.7645 8.68101 62.6348 8.48656C62.5051 8.29212 62.2734 8.14397 61.9398 8.04212C61.6154 7.94026 61.1567 7.88934 60.5636 7.88934H58.0754L58.5758 2.41712H64.5114V4.22267H59.3821L60.5497 3.19489L60.2022 7.09767L59.0345 6.06989H61.0918C62.0556 6.06989 62.8294 6.20415 63.4132 6.47267C64.0063 6.73193 64.4372 7.08841 64.706 7.54212C64.9747 7.99582 65.1091 8.50971 65.1091 9.08378C65.1091 9.65786 64.9655 10.1903 64.6782 10.681C64.3909 11.1625 63.9461 11.556 63.3437 11.8616C62.7506 12.1579 61.9907 12.306 61.064 12.306Z" fill="#58595B"/>
<path d="M67.524 12.1393V3.25045L68.4971 4.22267H65.5779V2.41712H69.7759V12.1393H67.524Z" fill="#58595B"/>
<path d="M71.3828 12.1393V10.681L75.136 7.13934C75.4325 6.87082 75.6503 6.63008 75.7893 6.41712C75.9283 6.20415 76.021 6.00971 76.0673 5.83378C76.1229 5.65786 76.1507 5.49582 76.1507 5.34767C76.1507 4.95878 76.0164 4.66249 75.7476 4.45878C75.4882 4.24582 75.1036 4.13934 74.5939 4.13934C74.1861 4.13934 73.8062 4.21804 73.454 4.37545C73.1111 4.53286 72.8192 4.77823 72.5783 5.11156L70.938 4.05601C71.3087 3.50045 71.8277 3.06063 72.4949 2.73656C73.1621 2.41249 73.9313 2.25045 74.8024 2.25045C75.5252 2.25045 76.1554 2.37082 76.6929 2.61156C77.2396 2.84304 77.6613 3.17175 77.9578 3.59767C78.2636 4.0236 78.4165 4.53286 78.4165 5.12545C78.4165 5.44026 78.3748 5.75508 78.2914 6.06989C78.2173 6.37545 78.0598 6.69952 77.8188 7.04212C77.5871 7.38471 77.2443 7.76897 76.7902 8.19489L73.6764 11.1255L73.2455 10.306H78.7363V12.1393H71.3828Z" fill="#58595B"/>
<path d="M79.7918 9.09767V7.36156H83.7257V9.09767H79.7918Z" fill="#58595B"/>
<path d="M86.1758 12.1393V3.25045L87.1488 4.22267H84.2297V2.41712H88.4277V12.1393H86.1758Z" fill="#58595B"/>
<path d="M91.6749 12.1393L95.5949 3.27823L96.1787 4.25045H90.9382L91.939 3.19489V5.83378H89.9373V2.41712H97.7355V3.87545L94.1214 12.1393H91.6749Z" fill="#58595B"/>
<path d="M97.7173 10.0977V8.58378L102.305 2.41712H104.668L100.178 8.58378L99.0796 8.26434H106.739V10.0977H97.7173ZM102.958 12.1393V10.0977L103.027 8.26434V6.44489H105.154V12.1393H102.958Z" fill="#58595B"/>
<path d="M110.473 12.306C109.796 12.306 109.124 12.218 108.457 12.0421C107.79 11.8569 107.225 11.5977 106.761 11.2643L107.637 9.54212C108.008 9.81063 108.439 10.0236 108.93 10.181C109.421 10.3384 109.917 10.4171 110.417 10.4171C110.982 10.4171 111.427 10.306 111.752 10.0838C112.076 9.86156 112.238 9.55601 112.238 9.16712C112.238 8.79675 112.094 8.50508 111.807 8.29212C111.52 8.07915 111.057 7.97267 110.417 7.97267H109.388V6.48656L112.099 3.41712L112.349 4.22267H107.248V2.41712H114.059V3.87545L111.362 6.94489L110.223 6.29212H110.876C112.071 6.29212 112.975 6.56064 113.586 7.09767C114.198 7.63471 114.504 8.32452 114.504 9.16712C114.504 9.71341 114.36 10.2273 114.073 10.7088C113.786 11.181 113.346 11.5653 112.752 11.8616C112.159 12.1579 111.399 12.306 110.473 12.306Z" fill="#58595B"/>
<defs>
<clipPath id="clip0_3495_714">
<rect width="12" height="12" fill="white" transform="translate(0.503906 0.996094)"/>
</clipPath>
</defs>
</svg>
